<svg width="24" height="20" viewBox="0 0 24 20" fill="none" xmlns="http://www.w3.org/2000/svg">
<path id="Vector" d="M21.3298 10.0001V4.16675H23.6632V11.1667H21.3298M21.3298 15.8334H23.6632V13.5001H21.3298M9.66317 11.1667C12.7782 11.1667 18.9965 12.7301 18.9965 15.8334V19.3334H0.329834V15.8334C0.329834 12.7301 6.54817 11.1667 9.66317 11.1667ZM9.66317 0.666748C10.9008 0.666748 12.0878 1.15841 12.963 2.03358C13.8382 2.90875 14.3298 4.09574 14.3298 5.33341C14.3298 6.57109 13.8382 7.75808 12.963 8.63325C12.0878 9.50842 10.9008 10.0001 9.66317 10.0001C8.42549 10.0001 7.23851 9.50842 6.36334 8.63325C5.48817 7.75808 4.9965 6.57109 4.9965 5.33341C4.9965 4.09574 5.48817 2.90875 6.36334 2.03358C7.23851 1.15841 8.42549 0.666748 9.66317 0.666748ZM9.66317 13.3834C6.19817 13.3834 2.5465 15.0867 2.5465 15.8334V17.1167H16.7798V15.8334C16.7798 15.0867 13.1282 13.3834 9.66317 13.3834ZM9.66317 2.88341C9.01339 2.88341 8.39022 3.14154 7.93076 3.601C7.47129 4.06047 7.21317 4.68363 7.21317 5.33341C7.21317 5.98319 7.47129 6.60636 7.93076 7.06583C8.39022 7.52529 9.01339 7.78341 9.66317 7.78341C10.3129 7.78341 10.9361 7.52529 11.3956 7.06583C11.855 6.60636 12.1132 5.98319 12.1132 5.33341C12.1132 4.68363 11.855 4.06047 11.3956 3.601C10.9361 3.14154 10.3129 2.88341 9.66317 2.88341Z" fill="#888888" style="fill:#888888;fill:color(display-p3 0.5333 0.5333 0.5333);fill-opacity:1;"/>
</svg>
