<svg width="26" height="24" viewBox="0 0 26 24" fill="none" xmlns="http://www.w3.org/2000/svg">
<path id="Vector" d="M24.3619 16.6088H8.07871L8.89629 14.9436L22.4807 14.919C22.94 14.919 23.3338 14.5909 23.4158 14.137L25.2971 3.60688C25.3463 3.33071 25.2725 3.04634 25.092 2.83032C25.0028 2.72401 24.8915 2.63837 24.7659 2.57935C24.6404 2.52033 24.5034 2.48934 24.3646 2.48853L7.0834 2.4311L6.93574 1.73657C6.84277 1.2936 6.44355 0.970947 5.98965 0.970947H1.76504C1.50904 0.970947 1.26353 1.07264 1.08252 1.25366C0.901499 1.43467 0.799805 1.68019 0.799805 1.93618C0.799805 2.19218 0.901499 2.43769 1.08252 2.61871C1.26353 2.79972 1.50904 2.90142 1.76504 2.90142H5.20762L5.85293 5.96938L7.4416 13.6612L5.39629 16.9999C5.29007 17.1432 5.2261 17.3134 5.2116 17.4913C5.1971 17.6691 5.23266 17.8474 5.31426 18.0061C5.47832 18.3315 5.80918 18.5366 6.17559 18.5366H7.89277C7.52669 19.0228 7.32896 19.615 7.32949 20.2237C7.32949 21.7713 8.5873 23.0292 10.135 23.0292C11.6826 23.0292 12.9404 21.7713 12.9404 20.2237C12.9404 19.6139 12.7381 19.0206 12.3771 18.5366H16.7822C16.4161 19.0228 16.2184 19.615 16.2189 20.2237C16.2189 21.7713 17.4768 23.0292 19.0244 23.0292C20.5721 23.0292 21.8299 21.7713 21.8299 20.2237C21.8299 19.6139 21.6275 19.0206 21.2666 18.5366H24.3646C24.8951 18.5366 25.3299 18.1045 25.3299 17.5713C25.3283 17.3156 25.2256 17.0709 25.0443 16.8906C24.8629 16.7103 24.6176 16.609 24.3619 16.6088ZM7.48535 4.33423L23.2299 4.38618L21.6877 13.0213L9.32012 13.0432L7.48535 4.33423ZM10.135 21.0877C9.65918 21.0877 9.2709 20.6995 9.2709 20.2237C9.2709 19.7479 9.65918 19.3596 10.135 19.3596C10.6107 19.3596 10.999 19.7479 10.999 20.2237C10.999 20.4528 10.908 20.6726 10.7459 20.8347C10.5839 20.9967 10.3641 21.0877 10.135 21.0877ZM19.0244 21.0877C18.5486 21.0877 18.1603 20.6995 18.1603 20.2237C18.1603 19.7479 18.5486 19.3596 19.0244 19.3596C19.5002 19.3596 19.8885 19.7479 19.8885 20.2237C19.8885 20.4528 19.7974 20.6726 19.6354 20.8347C19.4734 20.9967 19.2536 21.0877 19.0244 21.0877Z" fill="#888888" style="fill:#888888;fill:color(display-p3 0.5333 0.5333 0.5333);fill-opacity:1;"/>
</svg>
